# xmcd
#
# Track frame offsets:
#	150
#	19749
#	36384
#	55623
#	71142
#	90696
#	117727
#	141433
#	157300
#	181057
#	202547
#	213239
#	217746
#	236561
#	250703
#	270883
#
# Disc length: 3789 seconds
#
# Revision: 0
# Processed by: cddbd v1.5.2PL0 Copyright (c) Steve Scherf et al.
# Submitted via: audiograbber 1.83.01
#
DISCID=df0ecb10
DTITLE=Lucero - Live In Atlanta Disc 2
DYEAR=2014
DGENRE=Country
TTITLE0=Like Lightning
TTITLE1=Summer Song
TTITLE2=It Gets The Worst At Night
TTITLE3=That Much Further West
TTITLE4=Mom
TTITLE5=The War
TTITLE6=All Sewn Up
TTITLE7=What Else Would You Have Me Be?
TTITLE8=Tears Don't Matter Much
TTITLE9=Drink Till We're Gone
TTITLE10=Rick's Boogie
TTITLE11=Bastard's Lullaby
TTITLE12=It May Be Too Late
TTITLE13=A Dangerous Thing
TTITLE14=The Last Song
TTITLE15=Fistful Of Tears
EXTD=
EXTT0=
EXTT1=
EXTT2=
EXTT3=
EXTT4=
EXTT5=
EXTT6=
EXTT7=
EXTT8=
EXTT9=
EXTT10=
EXTT11=
EXTT12=
EXTT13=
EXTT14=
EXTT15=
PLAYORDER=
